<?xml version="1.0" encoding="UTF-8"?>
<svg width="226px" height="50px" viewBox="0 0 226 50" version="1.1" xmlns="http://www.w3.org/2000/svg" xmlns:xlink="http://www.w3.org/1999/xlink">
    <!-- Generator: Sketch 60 (88103) - https://sketch.com -->
    <title>Logo_Vodafone</title>
    <desc>Created with Sketch.</desc>
    <g id="Design" stroke="none" stroke-width="1" fill="none" fill-rule="evenodd">
        <g id="Logo_Vodafone">
            <rect id="Rectangle" fill="#E60000" x="0" y="0" width="226" height="50"></rect>
            <g id="Group-20-Copy" transform="translate(33.000000, 5.000000)" fill="#FFFFFF">
                <path d="M108.626256,9.84188371 C109.256953,8.76628784 110.453391,8.12434144 111.671238,7.98100124 C113.080689,7.80354969 114.535502,7.96938887 115.859675,8.49521155 C115.741737,9.52254351 115.583881,10.5447951 115.448162,11.5724899 C114.445143,11.1885559 113.193547,10.8884487 112.224277,11.4980981 C111.473102,12.0061394 111.529349,13.0011744 111.556566,13.7995249 C112.580632,13.792993 113.606512,13.7977105 114.633844,13.7948074 C114.633844,14.79456 114.633844,15.7943126 114.632393,16.7926136 C113.609415,16.7911621 112.588978,16.7958796 111.567815,16.7878961 C111.563098,20.5746177 111.566364,24.3595249 111.566364,28.1447951 C110.340896,28.1462466 109.115065,28.1411662 107.891048,28.148061 C107.886331,24.3595249 107.893951,20.5731662 107.886331,16.7864445 C107.249102,16.7958796 106.611873,16.7926136 105.975007,16.7926136 C105.972104,15.792861 105.973215,14.79456 105.975007,13.7948074 C106.611873,13.796259 107.250916,13.7948074 107.889597,13.7995249 C107.854034,12.4546672 107.887782,11.0209023 108.626256,9.84188371" id="Fill-4"></path>
                <path d="M82.5342021,16.9782301 C81.4745732,17.5991291 80.8954062,18.7973806 80.7183175,19.9745847 C80.5971134,21.1325559 80.6813031,22.3402425 81.158499,23.4162012 C81.5163052,24.2287043 82.1909113,24.9399621 83.0596619,25.1950713 C84.2306969,25.5383621 85.5483381,25.0386672 86.2871753,24.0871786 C86.2675794,21.708094 86.2853608,19.3293724 86.2770144,16.9506507 C85.0936412,16.5010342 83.6758433,16.3185023 82.5342021,16.9782301 M86.2802804,8.28891052 C87.5126433,8.29689402 88.7464577,8.29362804 89.9784577,8.29181361 L89.9784577,28.1460652 C88.8477031,28.1446136 87.7191258,28.1380816 86.5901856,28.1511456 C86.5274062,27.781727 86.4755134,27.4108569 86.4403134,27.0385353 C84.7452701,28.9429641 81.6037608,28.8573229 79.7102186,27.2994507 C77.8362722,25.7981889 77.0477196,23.2949971 77.0607835,20.9616363 C77.0121567,18.4827579 78.0347711,15.8333229 80.1877773,14.4608858 C81.964833,13.2720693 84.2854928,13.2140074 86.2802804,13.8428899 C86.2788289,11.9918054 86.2770144,10.1403579 86.2802804,8.28891052" id="Fill-6"></path>
                <path d="M67.395553,16.6766713 C66.3119736,17.0315744 65.58112,18.05056 65.3038746,19.1214384 C64.9522375,20.4713765 64.9798169,21.9483249 65.5023736,23.2514507 C65.8456643,24.1321765 66.5536561,24.9254466 67.4938953,25.1660404 C68.5165097,25.4737682 69.7049633,25.1722095 70.419487,24.3691414 C71.3775076,23.3341889 71.6112066,21.8405476 71.5400808,20.47936 C71.4856478,19.2763909 71.1144148,17.9943126 70.1596602,17.1941476 C69.414654,16.5380487 68.3245427,16.408861 67.395553,16.6766713 M66.4473303,13.6574548 C68.2744643,13.2513847 70.3211447,13.375492 71.9258293,14.4169765 C73.5965592,15.4461229 74.6674375,17.2620074 75.0303241,19.1649847 C75.4251447,21.2983951 75.107619,23.6067167 73.9351324,25.4559868 C73.0431571,26.8915662 71.5629427,27.9689765 69.8983819,28.3060981 C68.2294664,28.633059 66.4005179,28.4850012 64.9152231,27.6042755 C63.4992396,26.802659 62.4719076,25.4193353 61.9478994,23.89376 C61.1477344,21.6598301 61.280188,19.0942219 62.3655819,16.9767786 C63.1751819,15.3575786 64.6862416,14.0994507 66.4473303,13.6574548" id="Fill-8"></path>
                <path d="M96.7470186,22.1387678 C96.0067299,22.5629823 95.6507381,23.5289864 95.9116536,24.3356833 C96.1406351,24.9819843 96.8424577,25.3111225 97.4905732,25.3434194 C98.5469361,25.4642606 99.5757196,25.0110153 100.36899,24.3385864 C100.361369,23.3613328 100.367901,22.3858936 100.364635,21.4082771 C99.1467876,21.5392792 97.8552742,21.5534318 96.7470186,22.1387678 M93.2458887,15.17824 C95.2308784,13.7270565 97.8356784,13.133374 100.251414,13.6044008 C101.483777,13.8366482 102.641386,14.5704049 103.270631,15.6717658 C103.996404,16.8652998 104.083497,18.3070482 104.047934,19.6682359 C104.04612,22.4940338 104.049386,25.3176544 104.04612,28.1430895 C102.917542,28.1380091 101.788602,28.1380091 100.659299,28.1430895 C100.622647,27.786372 100.575835,27.4336462 100.514507,27.0820091 C98.6467299,28.9704709 95.2294268,28.9138606 93.4004784,26.9999967 C92.3441155,25.8852091 91.9474804,24.2130276 92.3542763,22.7371678 C92.6830515,21.4710565 93.7020371,20.4985204 94.8571052,19.9520132 C96.5648495,19.1409616 98.4790763,18.9747596 100.337056,18.8310565 C100.380602,18.0214565 100.183918,17.0249699 99.3434722,16.6863967 C97.6760082,15.971873 95.8180289,16.7684091 94.4601072,17.7812256 C94.0634722,16.9088462 93.6457897,16.0477163 93.2458887,15.17824" id="Fill-10"></path>
                <path d="M121.426501,16.6476041 C120.46848,16.9346474 119.734723,17.7475134 119.39615,18.6699711 C118.893189,20.0536577 118.876859,21.6100784 119.350789,23.0035629 C119.584851,23.6578474 119.945923,24.2965278 120.518558,24.7142103 C121.600686,25.5452206 123.285932,25.4610309 124.251936,24.4823258 C125.21794,23.5351918 125.506798,22.1134021 125.514781,20.8066474 C125.471235,19.4810227 125.135927,18.0182268 124.047268,17.1523794 C123.332744,16.5412784 122.313395,16.4331381 121.426501,16.6476041 M120.478278,13.6381856 C122.268398,13.2607835 124.258468,13.3885196 125.83267,14.3948041 C127.533882,15.4203216 128.627259,17.2699546 128.972365,19.2005113 C129.398393,21.2163464 129.046756,23.3853196 128.043375,25.1805196 C127.200026,26.7028289 125.714732,27.864066 124.018237,28.2686845 C122.202352,28.667134 120.181437,28.4944 118.604332,27.4496495 C117.01888,26.4466309 116.004612,24.7192907 115.606162,22.9146557 C115.078888,20.7213691 115.441775,18.3118021 116.642929,16.3961237 C117.49789,15.0269526 118.90589,14.0108701 120.478278,13.6381856" id="Fill-12"></path>
                <path d="M135.000746,14.9155827 C136.495838,13.7107992 138.519657,13.1835249 140.408119,13.564193 C141.631047,13.7576115 142.769059,14.4928198 143.386692,15.5734961 C144.193389,16.9506507 144.332012,18.5941641 144.296449,20.1567538 C144.294634,22.8178012 144.296449,25.4806631 144.296449,28.1431621 C143.064449,28.1478796 141.832086,28.1398961 140.600449,28.1478796 C140.59682,25.4839291 140.595368,22.8196157 140.6019,20.1553023 C140.600449,19.1762342 140.485414,18.1039043 139.824597,17.3280528 C139.379335,16.7880775 138.666626,16.5137353 137.974601,16.5540157 C136.853645,16.5119208 135.929735,17.2587414 135.142997,17.9667332 C135.1459,21.3597229 135.142997,24.7530755 135.144449,28.1478796 C133.915352,28.1431621 132.688069,28.1431621 131.459335,28.1460652 C131.459335,23.3628569 131.459335,18.5778342 131.460787,13.794626 C132.583558,13.797892 133.705966,13.7993435 134.828012,13.7931744 C134.891154,14.1654961 134.94595,14.5396322 135.000746,14.9155827" id="Fill-14"></path>
                <path d="M151.360399,17.0749757 C150.690873,17.5975324 150.394395,18.4310829 150.282989,19.2439489 C152.119921,19.2457633 153.95649,19.2457633 155.795236,19.2439489 C155.688911,18.2086334 155.216069,17.0909427 154.210148,16.6442293 C153.284424,16.1445344 152.134436,16.4250458 151.360399,17.0749757 M148.428275,15.4459777 C150.702486,12.9431489 155.116275,12.7094499 157.546527,15.102687 C159.260803,16.8942581 159.607723,19.5244602 159.53188,21.9035447 C156.430651,21.8890293 153.329422,21.8984643 150.229645,21.8984643 C150.226379,23.1533262 150.866873,24.469153 152.084358,24.9448973 C154.02435,25.6964355 156.304729,25.2257715 157.975459,24.0449386 C158.265768,25.0577551 158.649702,26.0400891 158.925496,27.0576231 C157.402824,28.0479406 155.561174,28.3926829 153.772869,28.4656231 C151.874609,28.5124355 149.855871,27.9655654 148.520449,26.5495819 C146.910684,24.9289303 146.370346,22.5306128 146.538362,20.3115612 C146.59969,18.5457551 147.212242,16.7523695 148.428275,15.4459777" id="Fill-16"></path>
                <path d="M46.0109361,13.796259 C47.3300289,13.796259 48.6476701,13.7977105 49.9653113,13.7948074 C51.1167505,16.7378177 52.2874227,19.674659 53.4406763,22.6194837 C53.5259546,22.8339497 53.6293773,23.0422466 53.736066,23.2469146 C54.9339546,20.097059 56.1340206,16.9461146 57.3449732,13.7995249 C58.5998351,13.7915414 59.854334,13.8013394 61.1091959,13.7948074 C59.1579546,18.5732981 57.2096165,23.3517889 55.2678103,28.1349971 C54.1972948,28.1574961 53.1246021,28.1368115 52.0519093,28.1462466 C50.0251876,23.3695703 48.043101,18.5714837 46.0109361,13.796259" id="Fill-18"></path>
                <path d="M11.1293691,2.29924948 C16.3480412,-0.248940206 22.6796866,-0.266721649 27.9484371,2.15409485 C23.8746722,1.81552165 19.8027216,3.16509691 16.4111835,5.3667299 C12.8871918,7.63585979 10.2940041,11.2756124 9.23764124,15.3236124 C8.49082062,18.2085608 8.6185567,21.3533361 9.81172784,24.1018392 C11.4552412,28.0235546 15.4546144,30.9411629 19.7573608,30.9524124 C22.2119258,30.9781773 24.6875381,30.1638598 26.579266,28.5849402 C28.8385979,26.7236948 30.2756289,23.8917278 30.4240495,20.966499 C30.5303753,18.5924948 29.9483052,16.105633 28.4227299,14.236767 C26.764701,12.1690392 24.2408247,11.0161485 21.7169485,10.403233 C21.4651052,6.60199588 24.4182763,2.98945979 28.1146392,2.24771959 C32.3429938,4.24758763 35.8121897,7.80024742 37.6861361,12.0870268 C39.5165361,16.2039753 39.8471258,20.9581526 38.6231093,25.2935588 C37.5246515,29.2443052 35.1412124,32.8267216 31.9220454,35.3680165 C28.5047423,38.1045443 24.1472,39.638466 19.7671588,39.631934 C15.9143918,39.6707629 12.0630763,38.5287588 8.85225567,36.4018804 C4.92509691,33.8326433 1.96902268,29.8140371 0.722507216,25.2870268 C-0.432197938,21.177699 -0.198136082,16.6877031 1.39203299,12.7253443 C3.18360412,8.19543093 6.73626392,4.40217732 11.1293691,2.29924948" id="Fill-1"></path>
            </g>
        </g>
    </g>
</svg>