<?xml version="1.0" standalone="no"?>
<!DOCTYPE svg PUBLIC "-//W3C//DTD SVG 20010904//EN"
 "http://www.w3.org/TR/2001/REC-SVG-20010904/DTD/svg10.dtd">
<svg version="1.0" xmlns="http://www.w3.org/2000/svg"
 width="226.000000pt" height="50.000000pt" viewBox="0 0 226.000000 50.000000"
 preserveAspectRatio="xMidYMid meet">

<g transform="translate(0.000000,50.000000) scale(0.100000,-0.100000)"
fill="#000000" stroke="none">
<path d="M284 373 c-9 -16 -30 -47 -45 -71 -16 -23 -29 -45 -29 -47 0 -3 14
-5 30 -5 17 0 30 5 30 10 0 6 -4 10 -10 10 -5 0 -7 7 -4 15 4 9 19 15 35 15
19 0 29 -5 29 -15 0 -8 -4 -15 -10 -15 -5 0 -10 -4 -10 -10 0 -6 32 -10 75
-10 l75 0 -6 30 c-6 27 -4 30 18 30 31 0 68 26 68 49 0 29 -22 41 -77 41 -50
0 -53 -1 -48 -22 3 -13 2 -41 -3 -63 -10 -49 -36 -59 -46 -18 -28 114 -41 128
-72 76z m206 -6 c0 -16 -20 -37 -36 -37 -7 0 -9 10 -6 25 5 26 42 37 42 12z
m-180 -32 c0 -8 -7 -15 -15 -15 -16 0 -20 12 -8 23 11 12 23 8 23 -8z"/>
<path d="M544 345 c0 -38 -5 -60 -19 -75 -18 -20 -18 -20 21 -20 l39 0 0 62
c1 39 5 63 13 66 24 8 11 22 -20 22 l-33 0 -1 -55z"/>
<path d="M1133 303 c-18 -6 -16 -33 1 -33 19 0 31 19 20 30 -5 4 -15 5 -21 3z"/>
<path d="M1207 293 c-12 -3 -16 -11 -12 -22 3 -9 1 -39 -4 -67 -11 -56 -3 -69
34 -60 24 6 26 8 11 19 -14 10 -15 20 -6 66 15 78 16 74 -23 64z"/>
<path d="M1667 293 c-12 -3 -16 -11 -12 -22 3 -9 1 -39 -4 -67 -11 -56 -3 -69
34 -60 24 6 26 8 11 19 -14 10 -15 20 -6 66 15 78 16 74 -23 64z"/>
<path d="M825 229 c-1 -40 -5 -64 -13 -67 -7 -2 -12 -8 -12 -13 0 -15 104 -10
128 7 23 16 29 48 11 59 -6 5 -4 12 8 20 14 11 16 18 7 32 -8 13 -26 19 -70
21 l-59 3 0 -62z m93 24 c-4 -22 -48 -31 -48 -10 0 19 10 27 32 27 13 0 18 -6
16 -17z m-14 -52 c10 -16 -5 -41 -25 -41 -14 0 -19 7 -19 25 0 18 5 25 19 25
11 0 22 -4 25 -9z"/>
<path d="M1891 255 c-13 -14 -19 -25 -14 -25 4 0 7 -20 5 -45 -4 -42 -2 -45
21 -45 13 0 30 7 37 15 10 13 9 15 -10 15 -16 0 -20 4 -16 16 3 9 6 22 6 30 0
8 7 14 15 14 8 0 15 5 15 10 0 6 -4 10 -10 10 -5 0 -10 7 -10 15 0 21 -11 18
-39 -10z"/>
<path d="M986 229 c-46 -36 -27 -89 32 -89 30 0 72 38 72 65 0 45 -60 59 -104
24z m64 -15 c0 -24 -19 -54 -35 -54 -17 0 -19 23 -5 51 13 23 40 25 40 3z"/>
<path d="M1108 245 c-6 -6 -1 -95 6 -102 3 -3 18 -2 33 2 24 6 25 8 10 16 -14
8 -16 18 -11 50 6 34 4 39 -13 39 -11 0 -22 -2 -25 -5z"/>
<path d="M1294 240 c-51 -19 -57 -84 -9 -96 28 -7 76 7 73 21 -2 6 -7 8 -13 6
-22 -9 -48 -5 -52 7 -3 8 5 12 24 12 16 0 39 7 52 17 l24 16 -7 -42 c-6 -37
-4 -42 11 -39 11 2 21 18 26 41 7 30 14 37 33 37 13 0 24 6 24 13 0 14 -150
20 -186 7z m46 -19 c0 -10 -30 -24 -37 -17 -3 3 -2 9 2 15 8 13 35 15 35 2z"/>
<path d="M1510 243 c-11 -3 -15 -18 -16 -58 0 -30 -5 -60 -12 -67 -20 -20 -14
-28 23 -28 19 0 35 5 35 10 0 6 -4 10 -10 10 -5 0 -10 7 -10 15 0 10 10 15 28
15 51 0 93 70 60 98 -12 9 -63 12 -98 5z m62 -58 c-12 -26 -42 -35 -42 -12 0
7 7 23 16 36 22 31 43 13 26 -24z"/>
<path d="M1741 226 c-23 -25 -27 -58 -8 -74 19 -15 119 -10 125 7 3 9 0 11 -8
6 -10 -6 -12 2 -8 37 l5 46 -42 0 c-32 1 -48 -4 -64 -22z m69 -10 c0 -8 -9
-24 -19 -37 -17 -21 -20 -22 -26 -7 -4 9 -2 26 5 37 12 24 40 28 40 7z"/>
<path d="M2005 240 c-79 -31 -41 -120 40 -93 14 4 24 13 23 18 -2 6 -7 8 -13
6 -22 -9 -48 -5 -52 7 -3 7 5 12 22 12 33 0 65 17 65 34 0 24 -45 33 -85 16z
m45 -19 c0 -10 -30 -24 -37 -17 -3 3 -2 9 2 15 8 13 35 15 35 2z"/>
</g>
</svg>
